M48
;Layer_Color=9474304
;FILE_FORMAT=4:4
METRIC
;TYPE=PLATED
T1F00S00C0.2000
T2F00S00C0.3000
T3F00S00C0.7000
T4F00S00C0.7500
T5F00S00C0.8000
T6F00S00C0.9000
T7F00S00C1.0000
T8F00S00C1.0160
T9F00S00C1.1000
T10F00S00C1.2700
T11F00S00C1.3000
T12F00S00C1.6000
T13F00S00C2.4000
T14F00S00C2.7000
T15F00S00C3.2000
%
T01
X01456750Y00208000
X01467750
Y00219000
X01456750
X00554250Y00179250
Y00169250
X00544250
Y00179250
T02
X00300000Y00095000
X00315000
X00330000
X00345000
Y00115000
Y00130000
X00330000
X00315000
X00300000
Y00115000
X00315000
X00330000
X00360000
Y00130000
X00375000
X00390000
X00395000Y00115000
Y00090000
X00465000
X00470000Y00100000
X00485000
X00480000Y00090000
X00485000Y00080000
X00480000Y00070000
X00465000
X00470000Y00080000
Y00060000
X00485000
X00502250Y00140750
X00704250Y00132750
X00780000Y00142500
X00792500
X00805000
X00817500
X00830000
X00842500
X00855000
X00867500
X00880000
X00885000Y00055000
X00870000
Y00040000
X00885000
Y00025000
X00870000
X00855000
Y00040000
Y00055000
X00840000
X00825000
X00810000
X00795000
Y00040000
X00810000
X00825000
X00840000
Y00025000
X00825000
X00810000
X00795000
X00780000
Y00040000
Y00055000
X00955000
Y00040000
Y00025000
X00970000
Y00040000
Y00055000
X00985000
Y00040000
Y00025000
Y00070000
X01000000
X01015000
X01035000
X01050000
X01065000
X01080000
Y00055000
X01065000
Y00040000
Y00025000
X01080000
Y00040000
X01175250Y00131500
X01441000Y00070250
X01486750Y00097750
X01495000Y00104250
X01540250Y00144750
X01660000Y00127000
Y00107000
X01679750Y00082250
X01680000Y00072500
X01933750Y00122750
X01945500
X01954750Y00128750
Y00116250
Y00103750
X01967688
Y00116250
Y00128750
X01980625
Y00116250
Y00103750
X01993562
Y00116250
Y00128750
X02006500Y00103750
X01954500Y00143500
X01939750Y00133000
X02073250Y00042000
X02073150Y00028150
X02227250Y00298750
X02159000Y00357500
X02149000
X02138000Y00360000
X02128500Y00359750
X02123000Y00367750
X02116250Y00322250
X02122500Y00423250
X02110000Y00427750
X02077250Y00418500
X02060000Y00411250
X02047500Y00406750
X02034500Y00411250
X02002750Y00392000
X02034500Y00350250
X01994500Y00477750
Y00487750
X01986500Y00510000
X02003750Y00524500
X02077750
X02092500Y00468500
X02169750Y00457500
X02210000Y00502500
X01891250Y00515000
X01897750Y00523000
X01878250Y00519250
X01865750
X01841250Y00519500
X01904250Y00455000
X01914250
X01954500Y00153500
X02019400Y00156600
X02002150Y00175900
X02002000Y00189500
X02140250Y00167750
X01780000Y00160000
X01760000
X01770000Y00170000
X01760000Y00180000
X01780000
X01770000Y00190000
X01760000Y00200000
Y00220000
X01750000Y00210000
X01740000Y00220000
Y00200000
X01720000
Y00220000
X01730000Y00210000
Y00190000
X01720000Y00180000
Y00160000
X01730000Y00170000
X01740000Y00160000
Y00180000
X01750000Y00190000
Y00170000
X01680000Y00163250
Y00153250
X01687000Y00215750
X01636750Y00214000
Y00204000
Y00193750
X01640500Y00234750
X01635000Y00247250
X01612500Y00275000
X01597500
X01582500
X01567500
X01552500
X01537500
X01545000Y00265000
X01560000
X01530000
X01550000Y00201500
X01558500Y00193750
X01511625Y00172250
X01501625
X01464500Y00172500
X01452750
X01440750Y00172500
X01424750Y00172500
X01418250Y00207750
X01434000Y00406000
X01460250Y00430000
X01433350Y00475000
X01420000Y00490000
X01511850Y00475000
X01535250Y00435000
X01566000Y00400000
X01612750Y00435000
X01630000Y00420250
X01657250Y00396000
X01668250
Y00384500
X01657250Y00384250
X01660000Y00343250
X01671500Y00313250
X01772750Y00312750
Y00324750
X01757000Y00265250
Y00255750
X01793000Y00246000
X01799000Y00236000
X01742250Y00370250
X01490250Y00364250
X01585750Y00475000
X01331850Y00475500
X01308750Y00465000
Y00447000
X01299000Y00456250
X01295250Y00435250
X01295000Y00415750
X01282750
X01271750Y00426500
X01262000
X01227500Y00413000
X01232250Y00402750
X01234000Y00380250
X01244409Y00373663
X01251061Y00380269
X01203500Y00380250
X01172750Y00351750
X01160750Y00351750
X01140500Y00364500
X01141000Y00325000
Y00314000
Y00302000
Y00292000
X01127000
Y00302000
X01109000Y00301000
X01096000
X01093000Y00317000
X01081000
X01087000Y00325000
X01063000Y00319000
X01053000
X01046000Y00311000
Y00300000
Y00289000
X01053000Y00280000
X01063000
X01081000Y00286000
X01092000
X01090000Y00270000
Y00260000
X01123000
Y00270000
X01155000Y00292000
Y00302000
X01182000Y00296000
X01194500Y00280250
Y00266750
X01207500Y00260250
X01222500Y00246250
X01232750Y00252000
X01251000Y00243750
X01268000Y00224750
X01248500Y00204750
X01211750Y00201250
X01191000Y00192250
X01191500Y00246250
X01260500Y00270750
X01239393Y00291963
X01232322Y00299034
X01218250Y00335250
X01263465Y00323105
X01270536Y00316034
X01277607Y00308963
X01284678Y00301892
X01291749Y00294821
X01298820Y00287750
X01316180
X01311250Y00316500
X01326500Y00312250
X01325250Y00322250
X01337393Y00308963
X01356000Y00331750
X01334785Y00352000
X01327715Y00359071
X01320643Y00366142
X01351986Y00390414
X01359057Y00383342
X01347500Y00418250
X01338000Y00421500
X01329000Y00437750
X01318750Y00428250
X01287250Y00475000
X01384733Y00359521
X01403750Y00378250
X01402750Y00318250
X01414250Y00297500
X01381250Y00266250
Y00254250
Y00243500
X01347000Y00249750
X01349378Y00261623
X01363520Y00275765
X01365000Y00203500
X01374250Y00172500
X01390750Y00161500
X01412750Y00171250
X01307000Y00170500
X01258750Y00163750
X01245250Y00157000
X01107000Y00178250
X01032750Y00267000
Y00285000
Y00305000
X01063750Y00343750
X01050750Y00371750
X01036500Y00382250
X01024750Y00380500
X01037750Y00487500
X01015500Y00427250
X00956500
X00978250Y00453000
X00959750Y00477000
X00905500Y00453250
X00891350Y00458650
X00870250Y00464750
X00836750Y00449750
X00825500Y00458500
X00801250Y00452500
X00759750Y00459250
X00767750Y00433500
X00837000Y00392000
X00913750Y00384000
X00913500Y00419500
X00956750Y00370000
X00952000Y00337000
X00951000Y00314000
X00978250Y00348500
X01006000Y00352000
X00911125Y00272125
X00895000Y00238750
X00891250Y00215000
X00880750
X00843250Y00217750
X00819000Y00214000
Y00227000
X00805000
Y00214000
X00792000
X00779000
Y00227000
X00792000
Y00200000
Y00187000
Y00174000
X00779000
X00780000Y00155000
X00792500
X00805000
X00817500
X00830000
X00842500
X00855000
X00867500
X00880000
X00819000Y00174000
Y00187000
Y00200000
X00805000
Y00187000
Y00174000
X00858500Y00240000
X00937250Y00237750
X00973500Y00199500
X00787500Y00283250
X00720000Y00280000
Y00260000
Y00300000
X00700000
X00680000
X00660000
X00640000
X00625000Y00285000
Y00265000
Y00245000
X00650000Y00240000
X00670000
X00690000
X00683750Y00211500
Y00197750
X00669000Y00197500
X00668750Y00180500
Y00167250
Y00155750
X00656000
X00643000
X00629500
Y00189500
X00643000
X00656250
X00697500Y00527250
X00567000Y00450500
Y00438500
X00419500Y00451500
Y00460500
X00428000Y00478250
X00367750
X00321750
X00291750Y00465000
X00299000Y00514000
Y00526250
X00359000Y00529750
X00362500Y00541250
X00458000Y00525500
X00540000Y00255000
X00555000
X00570000
X00585000Y00265000
X00605000
Y00285000
Y00245000
X00585000
X00542250Y00235000
X00532250Y00228750
X00603000Y00189500
X00616000
Y00155750
X00603000
X00214750Y00478250
X00174000
X00171500Y00497250
X00156250Y00513750
Y00525250
X00217500Y00532500
X00217250Y00517500
X00077750Y00478250
X00060000Y00487250
X00025250Y00484500
Y00452500
X00050500Y00434500
X00152000Y00553500
X00152000Y00571500
X00140250Y00575500
X00153250Y00596750
X00165750Y00614000
X00197500Y00633000
X00205500Y00567750
X00278000Y00577250
X00295500Y00551250
X00296250Y00616250
X00308750
X00350500Y00633000
X00349000Y00565500
X00446000Y00590500
X00468000Y00633250
X00512500Y00627500
Y00640000
X00517000Y00585250
X00520000Y00557500
Y00545000
X00582500Y00555000
Y00567250
X00570500Y00599500
X00623500Y00548750
X00804250Y00574000
X00884500Y00592500
X00913250Y00633000
X00956250Y00574000
X01037250Y00564750
X01036750Y00592500
X01313750Y00633250
X01414000Y00633000
X01408000Y00612750
X01509000Y00592500
X01572000Y00576500
X01646000
X01602000Y00633000
X01811500Y00655000
X01799500Y00673000
X01811500Y00693250
X01873250Y00622750
X01883750Y00613000
X01925000
X01925500Y00632000
X01967500Y00631750
X02015000Y00627500
X02041000Y00564750
X02150250Y00574750
X02169250Y00574750
X02105250Y00675500
X02074750
X01900000Y00649500
X01861250Y00591250
X01871750Y00568000
X01852000Y00559750
T03
X02218650Y00561500
Y00586500
Y00606500
Y00631500
T04
X00463250Y00241500
X00478250
T05
X00484500Y00406000
X00509500
X00078250Y00380750
X00053250
T06
X00444500Y00293600
Y00343600
X00553000Y00344000
Y00294000
X01873000Y00670800
X01893400
X01913800
X01924000Y00696200
X01903600
X01883200
T07
X00391000Y00052500
X00379000Y00103500
T08
X01960000Y00484600
Y00510000
Y00535400
X01127250Y00211750
X01101850
X01076450
X01051050
X01025650
X01000250
X01960000Y00560800
Y00586200
Y00611600
X02110850Y00552500
X02136250
X02161650
T09
X01179750Y00054750
X01229750Y00090750
X01279750Y00054750
X01736000Y00096000
X01811000
X01916750Y00289500
Y00364500
T10
X02022200Y00720000
X02157800
T11
X00117200Y00054200
X00342200
X01687250Y00438000
X01747250Y00412500
X01807250Y00438000
X01198500Y00468000
X01138500Y00442500
X01078500Y00468000
Y00590000
X01198500
X01687250Y00560000
X01807250
T12
X02290000Y00140750
Y00191550
X02290000Y00281750
Y00332550
Y00383350
Y00434150
X00060000Y00306000
Y00255200
Y00204400
Y00153600
X00129500Y00720000
X00180300
X00231100
X00281900
X00332700
X00383500
X00434300
X00485100
X00535900
X00641800
X00692600
X00743400
X00794200
X00845000
X00895800
X00946600
X00997400
X01048200
X01099000
X01229000
X01279800
X01330600
X01381400
X01432200
X01483000
X01533800
X01584600
X01635400
X01686200
X01737000
T13
X02245750Y00530500
Y00662500
T14
X00229699Y00054200
T15
X00050000Y00050000
X02300000
X01550000Y00340000
X00800000
X00050000Y00730000
X02300000
M30
