G04 Layer_Color=128*
%FSAX44Y44*%
%MOMM*%
G71*
G01*
G75*
%ADD79C,0.1000*%
D79*
X-00000000Y00020000D02*
G03*
X00020000Y00000000I00020000J00000000D01*
G01*
X00020000D02*
X02330000D01*
D02*
G03*
X02350000Y00020000I00000000J00020000D01*
G01*
Y00760000D01*
Y00760000D02*
G03*
X02330000Y00780000I-00020000J00000000D01*
G01*
X00020000D01*
X00020000D02*
G03*
X-00000000Y00760000I00000000J-00020000D01*
G01*
Y00760000D02*
Y00020000D01*
X00066000Y00050000D02*
G03*
X00066000Y00050000I-00016000J00000000D01*
G01*
X00080000D02*
G03*
X00080000Y00050000I-00030000J00000000D01*
G01*
X00068000Y00153600D02*
G03*
X00068000Y00153600I-00008000J00000000D01*
G01*
Y00204400D02*
G03*
X00068000Y00204400I-00008000J00000000D01*
G01*
Y00255200D02*
G03*
X00068000Y00255200I-00008000J00000000D01*
G01*
Y00306000D02*
G03*
X00068000Y00306000I-00008000J00000000D01*
G01*
X00493100Y00720000D02*
G03*
X00493100Y00720000I-00008000J00000000D01*
G01*
X00543900D02*
G03*
X00543900Y00720000I-00008000J00000000D01*
G01*
X00442300D02*
G03*
X00442300Y00720000I-00008000J00000000D01*
G01*
X00391500D02*
G03*
X00391500Y00720000I-00008000J00000000D01*
G01*
X00340700D02*
G03*
X00340700Y00720000I-00008000J00000000D01*
G01*
X00289900D02*
G03*
X00289900Y00720000I-00008000J00000000D01*
G01*
X00239100D02*
G03*
X00239100Y00720000I-00008000J00000000D01*
G01*
X00188300D02*
G03*
X00188300Y00720000I-00008000J00000000D01*
G01*
X00137500D02*
G03*
X00137500Y00720000I-00008000J00000000D01*
G01*
X00080000Y00730000D02*
G03*
X00080000Y00730000I-00030000J00000000D01*
G01*
X00066000D02*
G03*
X00066000Y00730000I-00016000J00000000D01*
G01*
X00649800Y00720000D02*
G03*
X00649800Y00720000I-00008000J00000000D01*
G01*
X00700600D02*
G03*
X00700600Y00720000I-00008000J00000000D01*
G01*
X00751400D02*
G03*
X00751400Y00720000I-00008000J00000000D01*
G01*
X00802200D02*
G03*
X00802200Y00720000I-00008000J00000000D01*
G01*
X00853000D02*
G03*
X00853000Y00720000I-00008000J00000000D01*
G01*
X00903800D02*
G03*
X00903800Y00720000I-00008000J00000000D01*
G01*
X00954600D02*
G03*
X00954600Y00720000I-00008000J00000000D01*
G01*
X01005400D02*
G03*
X01005400Y00720000I-00008000J00000000D01*
G01*
X01056200D02*
G03*
X01056200Y00720000I-00008000J00000000D01*
G01*
X01107000D02*
G03*
X01107000Y00720000I-00008000J00000000D01*
G01*
X01237000D02*
G03*
X01237000Y00720000I-00008000J00000000D01*
G01*
X01287800D02*
G03*
X01287800Y00720000I-00008000J00000000D01*
G01*
X01338600D02*
G03*
X01338600Y00720000I-00008000J00000000D01*
G01*
X01389400D02*
G03*
X01389400Y00720000I-00008000J00000000D01*
G01*
X01440200D02*
G03*
X01440200Y00720000I-00008000J00000000D01*
G01*
X01491000D02*
G03*
X01491000Y00720000I-00008000J00000000D01*
G01*
X01541800D02*
G03*
X01541800Y00720000I-00008000J00000000D01*
G01*
X01592600D02*
G03*
X01592600Y00720000I-00008000J00000000D01*
G01*
X01643400D02*
G03*
X01643400Y00720000I-00008000J00000000D01*
G01*
X01694200D02*
G03*
X01694200Y00720000I-00008000J00000000D01*
G01*
X01745000D02*
G03*
X01745000Y00720000I-00008000J00000000D01*
G01*
X01877500Y00670800D02*
G03*
X01877500Y00670800I-00004500J00000000D01*
G01*
X01897900D02*
G03*
X01897900Y00670800I-00004500J00000000D01*
G01*
X01918300D02*
G03*
X01918300Y00670800I-00004500J00000000D01*
G01*
X01970500Y00719200D02*
G03*
X01970500Y00719200I-00012000J00000000D01*
G01*
X02028600Y00720000D02*
G03*
X02028600Y00720000I-00006400J00000000D01*
G01*
X01928500Y00696200D02*
G03*
X01928500Y00696200I-00004500J00000000D01*
G01*
X01908100D02*
G03*
X01908100Y00696200I-00004500J00000000D01*
G01*
X01887700D02*
G03*
X01887700Y00696200I-00004500J00000000D01*
G01*
X01850500Y00719200D02*
G03*
X01850500Y00719200I-00012000J00000000D01*
G01*
X02164200Y00720000D02*
G03*
X02164200Y00720000I-00006400J00000000D01*
G01*
X02257750Y00662500D02*
G03*
X02257750Y00662500I-00012000J00000000D01*
G01*
Y00530500D02*
G03*
X02257750Y00530500I-00012000J00000000D01*
G01*
X02298000Y00434150D02*
G03*
X02298000Y00434150I-00008000J00000000D01*
G01*
Y00383350D02*
G03*
X02298000Y00383350I-00008000J00000000D01*
G01*
Y00332550D02*
G03*
X02298000Y00332550I-00008000J00000000D01*
G01*
Y00281750D02*
G03*
X02298000Y00281750I-00008000J00000000D01*
G01*
X02298000Y00191550D02*
G03*
X02298000Y00191550I-00008000J00000000D01*
G01*
Y00140750D02*
G03*
X02298000Y00140750I-00008000J00000000D01*
G01*
X02316000Y00050000D02*
G03*
X02316000Y00050000I-00016000J00000000D01*
G01*
X02330000D02*
G03*
X02330000Y00050000I-00030000J00000000D01*
G01*
Y00730000D02*
G03*
X02330000Y00730000I-00030000J00000000D01*
G01*
X02316000D02*
G03*
X02316000Y00730000I-00016000J00000000D01*
G01*
X01580000Y00340000D02*
G03*
X01580000Y00340000I-00030000J00000000D01*
G01*
X01566000D02*
G03*
X01566000Y00340000I-00016000J00000000D01*
G01*
X00830000D02*
G03*
X00830000Y00340000I-00030000J00000000D01*
G01*
X00816000D02*
G03*
X00816000Y00340000I-00016000J00000000D01*
G01*
M02*
