G04 Layer_Color=128*
%FSAX44Y44*%
%MOMM*%
G71*
G01*
G75*
%ADD79C,0.1000*%
%ADD188C,0.1270*%
D79*
X-00000000Y00020000D02*
G03*
X00020000Y00000000I00020000J00000000D01*
G01*
X00020000D02*
X02330000D01*
D02*
G03*
X02350000Y00020000I00000000J00020000D01*
G01*
Y00760000D01*
Y00760000D02*
G03*
X02330000Y00780000I-00020000J00000000D01*
G01*
X00020000D01*
X00020000D02*
G03*
X-00000000Y00760000I00000000J-00020000D01*
G01*
Y00760000D02*
Y00020000D01*
X00066000Y00050000D02*
G03*
X00066000Y00050000I-00016000J00000000D01*
G01*
X00080000D02*
G03*
X00080000Y00050000I-00030000J00000000D01*
G01*
X00068000Y00153600D02*
G03*
X00068000Y00153600I-00008000J00000000D01*
G01*
Y00204400D02*
G03*
X00068000Y00204400I-00008000J00000000D01*
G01*
Y00255200D02*
G03*
X00068000Y00255200I-00008000J00000000D01*
G01*
Y00306000D02*
G03*
X00068000Y00306000I-00008000J00000000D01*
G01*
X00493100Y00720000D02*
G03*
X00493100Y00720000I-00008000J00000000D01*
G01*
X00543900D02*
G03*
X00543900Y00720000I-00008000J00000000D01*
G01*
X00442300D02*
G03*
X00442300Y00720000I-00008000J00000000D01*
G01*
X00391500D02*
G03*
X00391500Y00720000I-00008000J00000000D01*
G01*
X00340700D02*
G03*
X00340700Y00720000I-00008000J00000000D01*
G01*
X00289900D02*
G03*
X00289900Y00720000I-00008000J00000000D01*
G01*
X00239100D02*
G03*
X00239100Y00720000I-00008000J00000000D01*
G01*
X00188300D02*
G03*
X00188300Y00720000I-00008000J00000000D01*
G01*
X00137500D02*
G03*
X00137500Y00720000I-00008000J00000000D01*
G01*
X00080000Y00730000D02*
G03*
X00080000Y00730000I-00030000J00000000D01*
G01*
X00066000D02*
G03*
X00066000Y00730000I-00016000J00000000D01*
G01*
X00649800Y00720000D02*
G03*
X00649800Y00720000I-00008000J00000000D01*
G01*
X00700600D02*
G03*
X00700600Y00720000I-00008000J00000000D01*
G01*
X00751400D02*
G03*
X00751400Y00720000I-00008000J00000000D01*
G01*
X00802200D02*
G03*
X00802200Y00720000I-00008000J00000000D01*
G01*
X00853000D02*
G03*
X00853000Y00720000I-00008000J00000000D01*
G01*
X00903800D02*
G03*
X00903800Y00720000I-00008000J00000000D01*
G01*
X00954600D02*
G03*
X00954600Y00720000I-00008000J00000000D01*
G01*
X01005400D02*
G03*
X01005400Y00720000I-00008000J00000000D01*
G01*
X01056200D02*
G03*
X01056200Y00720000I-00008000J00000000D01*
G01*
X01107000D02*
G03*
X01107000Y00720000I-00008000J00000000D01*
G01*
X01237000D02*
G03*
X01237000Y00720000I-00008000J00000000D01*
G01*
X01287800D02*
G03*
X01287800Y00720000I-00008000J00000000D01*
G01*
X01338600D02*
G03*
X01338600Y00720000I-00008000J00000000D01*
G01*
X01389400D02*
G03*
X01389400Y00720000I-00008000J00000000D01*
G01*
X01440200D02*
G03*
X01440200Y00720000I-00008000J00000000D01*
G01*
X01491000D02*
G03*
X01491000Y00720000I-00008000J00000000D01*
G01*
X01541800D02*
G03*
X01541800Y00720000I-00008000J00000000D01*
G01*
X01592600D02*
G03*
X01592600Y00720000I-00008000J00000000D01*
G01*
X01643400D02*
G03*
X01643400Y00720000I-00008000J00000000D01*
G01*
X01694200D02*
G03*
X01694200Y00720000I-00008000J00000000D01*
G01*
X01745000D02*
G03*
X01745000Y00720000I-00008000J00000000D01*
G01*
X01877500Y00670800D02*
G03*
X01877500Y00670800I-00004500J00000000D01*
G01*
X01897900D02*
G03*
X01897900Y00670800I-00004500J00000000D01*
G01*
X01918300D02*
G03*
X01918300Y00670800I-00004500J00000000D01*
G01*
X01970500Y00719200D02*
G03*
X01970500Y00719200I-00012000J00000000D01*
G01*
X02028600Y00720000D02*
G03*
X02028600Y00720000I-00006400J00000000D01*
G01*
X01928500Y00696200D02*
G03*
X01928500Y00696200I-00004500J00000000D01*
G01*
X01908100D02*
G03*
X01908100Y00696200I-00004500J00000000D01*
G01*
X01887700D02*
G03*
X01887700Y00696200I-00004500J00000000D01*
G01*
X01850500Y00719200D02*
G03*
X01850500Y00719200I-00012000J00000000D01*
G01*
X02164200Y00720000D02*
G03*
X02164200Y00720000I-00006400J00000000D01*
G01*
X02257750Y00662500D02*
G03*
X02257750Y00662500I-00012000J00000000D01*
G01*
Y00530500D02*
G03*
X02257750Y00530500I-00012000J00000000D01*
G01*
X02298000Y00434150D02*
G03*
X02298000Y00434150I-00008000J00000000D01*
G01*
Y00383350D02*
G03*
X02298000Y00383350I-00008000J00000000D01*
G01*
Y00332550D02*
G03*
X02298000Y00332550I-00008000J00000000D01*
G01*
Y00281750D02*
G03*
X02298000Y00281750I-00008000J00000000D01*
G01*
X02298000Y00191550D02*
G03*
X02298000Y00191550I-00008000J00000000D01*
G01*
Y00140750D02*
G03*
X02298000Y00140750I-00008000J00000000D01*
G01*
X02316000Y00050000D02*
G03*
X02316000Y00050000I-00016000J00000000D01*
G01*
X02330000D02*
G03*
X02330000Y00050000I-00030000J00000000D01*
G01*
Y00730000D02*
G03*
X02330000Y00730000I-00030000J00000000D01*
G01*
X02316000D02*
G03*
X02316000Y00730000I-00016000J00000000D01*
G01*
X01580000Y00340000D02*
G03*
X01580000Y00340000I-00030000J00000000D01*
G01*
X01566000D02*
G03*
X01566000Y00340000I-00016000J00000000D01*
G01*
X00830000D02*
G03*
X00830000Y00340000I-00030000J00000000D01*
G01*
X00816000D02*
G03*
X00816000Y00340000I-00016000J00000000D01*
G01*
D188*
X00110700Y00054200D02*
X00123700D01*
X00117200Y00047700D02*
Y00060700D01*
X00060000Y00145600D02*
Y00161600D01*
Y00196400D02*
Y00212400D01*
Y00247200D02*
Y00263200D01*
Y00298000D02*
Y00314000D01*
X00052000Y00306000D02*
X00068000D01*
Y00255200D02*
X00052000D01*
Y00204400D02*
X00068000D01*
Y00153600D02*
X00052000D01*
X00050000Y00066000D02*
Y00034000D01*
X00066000Y00050000D02*
X00034000D01*
X00216199Y00054200D02*
X00243199D01*
X00335700Y00054200D02*
X00348700D01*
X00342200Y00047700D02*
Y00060700D01*
X00343500Y00095000D02*
X00346500D01*
X00345000Y00093500D02*
Y00096500D01*
X00374000Y00103500D02*
X00384000D01*
X00379000Y00098500D02*
Y00108500D01*
X00375000Y00128500D02*
Y00131500D01*
X00373500Y00130000D02*
X00376500D01*
X00388500D02*
X00391500D01*
X00390000Y00128500D02*
Y00131500D01*
X00361500Y00130000D02*
X00358500D01*
X00360000Y00128500D02*
Y00131500D01*
X00346500Y00130000D02*
X00343500D01*
X00345000Y00128500D02*
Y00131500D01*
Y00116500D02*
Y00113500D01*
X00343500Y00115000D02*
X00346500D01*
X00358500D02*
X00361500D01*
X00360000Y00113500D02*
Y00116500D01*
X00391000Y00057500D02*
Y00047500D01*
X00386000Y00052500D02*
X00396000D01*
X00468500Y00060000D02*
X00471500D01*
X00470000Y00058500D02*
Y00061500D01*
X00465000Y00068500D02*
Y00071500D01*
X00463500Y00070000D02*
X00466500D01*
X00468500Y00080000D02*
X00471500D01*
X00470000Y00078500D02*
Y00081500D01*
X00465000Y00088500D02*
Y00091500D01*
X00463500Y00090000D02*
X00466500D01*
X00468500Y00100000D02*
X00471500D01*
X00470000Y00098500D02*
Y00101500D01*
X00483500Y00100000D02*
X00486500D01*
X00485000Y00098500D02*
Y00101500D01*
X00481500Y00090000D02*
X00478500D01*
X00480000Y00088500D02*
Y00091500D01*
X00483500Y00080000D02*
X00486500D01*
X00485000Y00078500D02*
Y00081500D01*
X00481500Y00070000D02*
X00478500D01*
X00480000Y00068500D02*
Y00071500D01*
X00483500Y00060000D02*
X00486500D01*
X00485000Y00058500D02*
Y00061500D01*
X00500750Y00140750D02*
X00503750D01*
X00502250Y00139250D02*
Y00142250D01*
X00553250Y00169250D02*
X00555250D01*
X00554250Y00168250D02*
Y00170250D01*
Y00178250D02*
Y00180250D01*
X00553250Y00179250D02*
X00555250D01*
X00601500Y00155750D02*
X00604500D01*
X00603000Y00154250D02*
Y00157250D01*
X00614500Y00155750D02*
X00617500D01*
X00616000Y00154250D02*
Y00157250D01*
X00628000Y00155750D02*
X00631000D01*
X00629500Y00154250D02*
Y00157250D01*
X00641500Y00155750D02*
X00644500D01*
X00643000Y00154250D02*
Y00157250D01*
X00654500Y00155750D02*
X00657500D01*
X00656000Y00154250D02*
Y00157250D01*
X00667250Y00155750D02*
X00670250D01*
X00668750Y00154250D02*
Y00157250D01*
X00702750Y00132750D02*
X00705750D01*
X00704250Y00131250D02*
Y00134250D01*
X00778500Y00142500D02*
X00781500D01*
X00780000Y00141000D02*
Y00144000D01*
Y00153500D02*
Y00156500D01*
X00778500Y00155000D02*
X00781500D01*
X00791000D02*
X00794000D01*
X00792500Y00153500D02*
Y00156500D01*
Y00144000D02*
Y00141000D01*
X00791000Y00142500D02*
X00794000D01*
X00803500D02*
X00806500D01*
X00805000Y00141000D02*
Y00144000D01*
Y00153500D02*
Y00156500D01*
X00803500Y00155000D02*
X00806500D01*
X00816000D02*
X00819000D01*
X00817500Y00153500D02*
Y00156500D01*
X00828500Y00155000D02*
X00831500D01*
X00830000Y00153500D02*
Y00156500D01*
X00841000Y00155000D02*
X00844000D01*
X00842500Y00153500D02*
Y00156500D01*
X00853500Y00155000D02*
X00856500D01*
X00855000Y00153500D02*
Y00156500D01*
X00866000Y00155000D02*
X00869000D01*
X00867500Y00153500D02*
Y00156500D01*
X00878500Y00155000D02*
X00881500D01*
X00880000Y00153500D02*
Y00156500D01*
Y00144000D02*
Y00141000D01*
X00878500Y00142500D02*
X00881500D01*
X00869000D02*
X00866000D01*
X00867500Y00141000D02*
Y00144000D01*
X00856500Y00142500D02*
X00853500D01*
X00844000D02*
X00841000D01*
X00842500Y00141000D02*
Y00144000D01*
X00831500Y00142500D02*
X00828500D01*
X00830000Y00141000D02*
Y00144000D01*
X00819000Y00142500D02*
X00816000D01*
X00817500Y00141000D02*
Y00144000D01*
X00855000D02*
Y00141000D01*
X00819000Y00172500D02*
Y00175500D01*
X00817500Y00174000D02*
X00820500D01*
X00819000Y00185500D02*
Y00188500D01*
X00817500Y00187000D02*
X00820500D01*
X00819000Y00198500D02*
Y00201500D01*
X00817500Y00200000D02*
X00820500D01*
X00806500D02*
X00803500D01*
X00805000Y00198500D02*
Y00201500D01*
Y00188500D02*
Y00185500D01*
X00803500Y00187000D02*
X00806500D01*
Y00174000D02*
X00803500D01*
X00805000Y00172500D02*
Y00175500D01*
X00879250Y00215000D02*
X00882250D01*
X00880750Y00213500D02*
Y00216500D01*
X00889750Y00215000D02*
X00892750D01*
X00891250Y00213500D02*
Y00216500D01*
X00893500Y00238750D02*
X00896500D01*
X00895000Y00237250D02*
Y00240250D01*
X00860000Y00240000D02*
X00857000D01*
X00858500Y00238500D02*
Y00241500D01*
X00935750Y00237750D02*
X00938750D01*
X00937250Y00236250D02*
Y00239250D01*
X00972000Y00199500D02*
X00975000D01*
X00973500Y00198000D02*
Y00201000D01*
X01000250Y00206670D02*
Y00216830D01*
X00995170Y00211750D02*
X01005330D01*
X01025650Y00206670D02*
Y00216830D01*
X01020570Y00211750D02*
X01030730D01*
X01045970D02*
X01056130D01*
X01051050Y00216830D02*
Y00206670D01*
X01076450D02*
Y00216830D01*
X01071370Y00211750D02*
X01081530D01*
X01096770D02*
X01106930D01*
X01101850Y00216830D02*
Y00206670D01*
X01105500Y00178250D02*
X01108500D01*
X01107000Y00176750D02*
Y00179750D01*
X01127250Y00206670D02*
Y00216830D01*
X01122170Y00211750D02*
X01132330D01*
X01123000Y00258500D02*
Y00261500D01*
X01121500Y00260000D02*
X01124500D01*
X01189500Y00192250D02*
X01192500D01*
X01191000Y00190750D02*
Y00193750D01*
X01210250Y00201250D02*
X01213250D01*
X01247000Y00204750D02*
X01250000D01*
X01248500Y00203250D02*
Y00206250D01*
X01257250Y00163750D02*
X01260250D01*
X01258750Y00162250D02*
Y00165250D01*
X01246750Y00157000D02*
X01243750D01*
X01245250Y00155500D02*
Y00158500D01*
X01235250Y00090750D02*
X01224250D01*
X01229750Y00085250D02*
Y00096250D01*
X01274250Y00054750D02*
X01285250D01*
X01279750Y00049250D02*
Y00060250D01*
X01372750Y00172500D02*
X01375750D01*
X01374250Y00171000D02*
Y00174000D01*
X01389250Y00161500D02*
X01392250D01*
X01390750Y00160000D02*
Y00163000D01*
X01411250Y00171250D02*
X01414250D01*
X01412750Y00169750D02*
Y00172750D01*
X01416750Y00207750D02*
X01419750D01*
X01418250Y00206250D02*
Y00209250D01*
X01455750Y00208000D02*
X01457750D01*
X01456750Y00207000D02*
Y00209000D01*
X01466750Y00208000D02*
X01468750D01*
X01500125Y00172250D02*
X01503125D01*
X01501625Y00170750D02*
Y00173750D01*
X01510125Y00172250D02*
X01513125D01*
X01511625Y00170750D02*
Y00173750D01*
X01538750Y00144750D02*
X01541750D01*
X01540250Y00143250D02*
Y00146250D01*
X01548500Y00201500D02*
X01551500D01*
X01550000Y00200000D02*
Y00203000D01*
X01557000Y00193750D02*
X01560000D01*
X01558500Y00192250D02*
Y00195250D01*
X01468750Y00219000D02*
X01466750D01*
X01467750Y00218000D02*
Y00220000D01*
X01457750Y00219000D02*
X01455750D01*
X01456750Y00218000D02*
Y00220000D01*
X01467750Y00209000D02*
Y00207000D01*
X01466000Y00172500D02*
X01463000D01*
X01464500Y00171000D02*
Y00174000D01*
X01454250Y00172500D02*
X01451250D01*
X01452750Y00171000D02*
Y00174000D01*
X01442250Y00172500D02*
X01439250D01*
X01440750Y00171000D02*
Y00174000D01*
X01426250Y00172500D02*
X01423250D01*
X01424750Y00171000D02*
Y00174000D01*
X01381250Y00242000D02*
Y00245000D01*
X01379750Y00243500D02*
X01382750D01*
X01381250Y00252750D02*
Y00255750D01*
X01379750Y00254250D02*
X01382750D01*
X01366500Y00203500D02*
X01363500D01*
X01365000Y00202000D02*
Y00205000D01*
X01347000Y00248250D02*
Y00251250D01*
X01345500Y00249750D02*
X01348500D01*
X01349378Y00260123D02*
Y00263123D01*
X01362020Y00275765D02*
X01365020D01*
X01363520Y00274265D02*
Y00277265D01*
X01337393Y00307463D02*
Y00310463D01*
X01335893Y00308963D02*
X01338893D01*
X01326500Y00310750D02*
Y00313750D01*
X01325250Y00320750D02*
Y00323750D01*
X01323750Y00322250D02*
X01326750D01*
X01327715Y00357571D02*
Y00360571D01*
X01326214Y00359071D02*
X01329214D01*
X01333286Y00352000D02*
X01336286D01*
X01334785Y00350500D02*
Y00353500D01*
X01354500Y00331750D02*
X01357500D01*
X01356000Y00330250D02*
Y00333250D01*
X01328000Y00312250D02*
X01325000D01*
X01317680Y00287750D02*
X01314680D01*
X01300320D02*
X01297320D01*
X01298820Y00286250D02*
Y00289250D01*
X01291749Y00293321D02*
Y00296321D01*
X01290249Y00294821D02*
X01293249D01*
X01284678Y00300392D02*
Y00303392D01*
X01283178Y00301892D02*
X01286178D01*
X01277607Y00307463D02*
Y00310463D01*
X01276107Y00308963D02*
X01279107D01*
X01269500Y00224750D02*
X01266500D01*
X01268000Y00223250D02*
Y00226250D01*
X01305500Y00170500D02*
X01308500D01*
X01307000Y00169000D02*
Y00172000D01*
X01347878Y00261623D02*
X01350878D01*
X01379750Y00266250D02*
X01382750D01*
X01381250Y00264750D02*
Y00267750D01*
X01412750Y00297500D02*
X01415750D01*
X01414250Y00296000D02*
Y00299000D01*
X01402750Y00316750D02*
Y00319750D01*
X01401250Y00318250D02*
X01404250D01*
X01384733Y00358021D02*
Y00361021D01*
X01383233Y00359521D02*
X01386233D01*
X01432500Y00406000D02*
X01435500D01*
X01434000Y00404500D02*
Y00407500D01*
X01488750Y00364250D02*
X01491750D01*
X01490250Y00362750D02*
Y00365750D01*
X01534000Y00340000D02*
X01566000D01*
X01550000Y00324000D02*
Y00356000D01*
X01551000Y00275000D02*
X01554000D01*
X01552500Y00273500D02*
Y00276500D01*
X01566000Y00275000D02*
X01569000D01*
X01567500Y00273500D02*
Y00276500D01*
X01561500Y00265000D02*
X01558500D01*
X01560000Y00263500D02*
Y00266500D01*
X01546500Y00265000D02*
X01543500D01*
X01545000Y00263500D02*
Y00266500D01*
X01537500Y00273500D02*
Y00276500D01*
X01536000Y00275000D02*
X01539000D01*
X01531500Y00265000D02*
X01528500D01*
X01530000Y00263500D02*
Y00266500D01*
X01581000Y00275000D02*
X01584000D01*
X01582500Y00273500D02*
Y00276500D01*
X01596000Y00275000D02*
X01599000D01*
X01597500Y00273500D02*
Y00276500D01*
X01611000Y00275000D02*
X01614000D01*
X01612500Y00273500D02*
Y00276500D01*
X01633500Y00247250D02*
X01636500D01*
X01635000Y00245750D02*
Y00248750D01*
X01639000Y00234750D02*
X01642000D01*
X01640500Y00233250D02*
Y00236250D01*
X01638250Y00214000D02*
X01635250D01*
X01636750Y00212500D02*
Y00215500D01*
Y00205500D02*
Y00202500D01*
X01635250Y00204000D02*
X01638250D01*
Y00193750D02*
X01635250D01*
X01636750Y00192250D02*
Y00195250D01*
X01658500Y00127000D02*
X01661500D01*
X01660000Y00125500D02*
Y00128500D01*
Y00108500D02*
Y00105500D01*
X01658500Y00107000D02*
X01661500D01*
X01678250Y00082250D02*
X01681250D01*
X01679750Y00080750D02*
Y00083750D01*
X01680000Y00074000D02*
Y00071000D01*
X01678500Y00072500D02*
X01681500D01*
X01730500Y00096000D02*
X01741500D01*
X01736000Y00090500D02*
Y00101500D01*
X01805500Y00096000D02*
X01816500D01*
X01811000Y00090500D02*
Y00101500D01*
X01780000Y00158500D02*
Y00161500D01*
X01778500Y00160000D02*
X01781500D01*
X01780000Y00178500D02*
Y00181500D01*
X01778500Y00180000D02*
X01781500D01*
X01797500Y00236000D02*
X01800500D01*
X01799000Y00234500D02*
Y00237500D01*
X01793000Y00244500D02*
Y00247500D01*
X01791500Y00246000D02*
X01794500D01*
X01757000Y00263750D02*
Y00266750D01*
X01755500Y00265250D02*
X01758500D01*
X01771250Y00312750D02*
X01774250D01*
X01772750Y00311250D02*
Y00314250D01*
Y00323250D02*
Y00326250D01*
X01771250Y00324750D02*
X01774250D01*
X01742250Y00368750D02*
Y00371750D01*
X01740750Y00370250D02*
X01743750D01*
X01747250Y00406000D02*
Y00419000D01*
X01740750Y00412500D02*
X01753750D01*
X01800750Y00438000D02*
X01813750D01*
X01807250Y00431500D02*
Y00444500D01*
X01841250Y00518000D02*
Y00521000D01*
X01839750Y00519500D02*
X01842750D01*
X01864250Y00519250D02*
X01867250D01*
X01865750Y00520750D02*
Y00517750D01*
X01878250D02*
Y00520750D01*
X01876750Y00519250D02*
X01879750D01*
X01896250Y00523000D02*
X01899250D01*
X01897750Y00521500D02*
Y00524500D01*
X01892750Y00515000D02*
X01889750D01*
X01891250Y00513500D02*
Y00516500D01*
X01902750Y00455000D02*
X01905750D01*
X01904250Y00453500D02*
Y00456500D01*
X01912750Y00455000D02*
X01915750D01*
X01914250Y00453500D02*
Y00456500D01*
X01916750Y00370000D02*
Y00359000D01*
X01911250Y00364500D02*
X01922250D01*
Y00289500D02*
X01911250D01*
X01916750Y00284000D02*
Y00295000D01*
X02000500Y00189500D02*
X02003500D01*
X02002000Y00188000D02*
Y00191000D01*
X02002150Y00177400D02*
Y00174400D01*
X02000650Y00175900D02*
X02003650D01*
X02017900Y00156600D02*
X02020900D01*
X02019400Y00155100D02*
Y00158100D01*
X01995063Y00128750D02*
X01992063D01*
X01993562Y00127250D02*
Y00130250D01*
Y00117750D02*
Y00114750D01*
X01992063Y00116250D02*
X01995063D01*
X01982125D02*
X01979125D01*
X01980625Y00114750D02*
Y00117750D01*
Y00127250D02*
Y00130250D01*
X01979125Y00128750D02*
X01982125D01*
Y00103750D02*
X01979125D01*
X01980625Y00102250D02*
Y00105250D01*
X01969187Y00103750D02*
X01966187D01*
X01967688Y00102250D02*
Y00105250D01*
X01956250Y00103750D02*
X01953250D01*
X01954750Y00102250D02*
Y00105250D01*
X01992063Y00103750D02*
X01995063D01*
X01993562Y00102250D02*
Y00105250D01*
X02005000Y00103750D02*
X02008000D01*
X02006500Y00102250D02*
Y00105250D01*
X02071750Y00042000D02*
X02074750D01*
X02073250Y00040500D02*
Y00043500D01*
X02073150Y00029650D02*
Y00026650D01*
X02071650Y00028150D02*
X02074650D01*
X01967688Y00114750D02*
Y00117750D01*
X01966187Y00116250D02*
X01969187D01*
X01967688Y00127250D02*
Y00130250D01*
X01966187Y00128750D02*
X01969187D01*
X01956250D02*
X01953250D01*
X01954750Y00127250D02*
Y00130250D01*
X01954500Y00142000D02*
Y00145000D01*
X01953000Y00143500D02*
X01956000D01*
X01954500Y00152000D02*
Y00155000D01*
X01953000Y00153500D02*
X01956000D01*
X01941250Y00133000D02*
X01938250D01*
X01939750Y00131500D02*
Y00134500D01*
X01944000Y00122750D02*
X01947000D01*
X01945500Y00121250D02*
Y00124250D01*
X01935250Y00122750D02*
X01932250D01*
X01933750Y00121250D02*
Y00124250D01*
X01953250Y00116250D02*
X01956250D01*
X01954750Y00114750D02*
Y00117750D01*
X02138750Y00167750D02*
X02141750D01*
X02140250Y00166250D02*
Y00169250D01*
X02282000Y00140750D02*
X02298000D01*
X02290000Y00132750D02*
Y00148750D01*
X02300000Y00066000D02*
Y00034000D01*
X02316000Y00050000D02*
X02284000D01*
X02290000Y00183550D02*
Y00199550D01*
X02298000Y00191550D02*
X02282000D01*
X02290000Y00273750D02*
Y00289750D01*
X02298000Y00281750D02*
X02282000D01*
X02290000Y00324550D02*
Y00340550D01*
X02298000Y00332550D02*
X02282000D01*
X02290000Y00375350D02*
Y00391350D01*
X02298000Y00383350D02*
X02282000D01*
X02290000Y00426150D02*
Y00442150D01*
X02298000Y00434150D02*
X02282000D01*
X02245750Y00518500D02*
Y00542500D01*
X02257750Y00530500D02*
X02233750D01*
X02218650Y00558000D02*
Y00565000D01*
X02215150Y00561500D02*
X02222150D01*
X02218650Y00583000D02*
Y00590000D01*
X02215150Y00586500D02*
X02222150D01*
X02218650Y00603000D02*
Y00610000D01*
X02215150Y00606500D02*
X02222150D01*
X02245750Y00650500D02*
Y00674500D01*
X02257750Y00662500D02*
X02233750D01*
X02222150Y00631500D02*
X02215150D01*
X02218650Y00628000D02*
Y00635000D01*
X02157800Y00713650D02*
Y00726350D01*
X02151450Y00720000D02*
X02164150D01*
X02106750Y00675500D02*
X02103750D01*
X02105250Y00674000D02*
Y00677000D01*
X02076250Y00675500D02*
X02073250D01*
X02074750Y00674000D02*
Y00677000D01*
X02022200Y00726350D02*
Y00713650D01*
X02015850Y00720000D02*
X02028550D01*
X01958500Y00731200D02*
Y00707200D01*
X01946500Y00719200D02*
X01970500D01*
X01928500Y00696200D02*
X01919500D01*
X01924000Y00691700D02*
Y00700700D01*
X01908100Y00696200D02*
X01899100D01*
X01903600Y00691700D02*
Y00700700D01*
X01887700Y00696200D02*
X01878700D01*
X01883200Y00691700D02*
Y00700700D01*
X01893400Y00675300D02*
Y00666300D01*
X01888900Y00670800D02*
X01897900D01*
X01909300D02*
X01918300D01*
X01913800Y00666300D02*
Y00675300D01*
X01924000Y00632000D02*
X01927000D01*
X01925500Y00630500D02*
Y00633500D01*
X01925000Y00614500D02*
Y00611500D01*
X01923500Y00613000D02*
X01926500D01*
X01885250D02*
X01882250D01*
X01883750Y00611500D02*
Y00614500D01*
X01954920Y00560800D02*
X01965080D01*
X01960000Y00555720D02*
Y00565880D01*
Y00540480D02*
Y00530320D01*
X01954920Y00535400D02*
X01965080D01*
Y00510000D02*
X01954920D01*
X01960000Y00504920D02*
Y00515080D01*
Y00489680D02*
Y00479520D01*
X01954920Y00484600D02*
X01965080D01*
X01993000Y00487750D02*
X01996000D01*
X01994500Y00486250D02*
Y00489250D01*
Y00479250D02*
Y00476250D01*
X01993000Y00477750D02*
X01996000D01*
X02075750Y00418500D02*
X02078750D01*
X02077250Y00417000D02*
Y00420000D01*
X02061500Y00411250D02*
X02058500D01*
X02060000Y00409750D02*
Y00412750D01*
X02049000Y00406750D02*
X02046000D01*
X02047500Y00405250D02*
Y00408250D01*
X02034500Y00409750D02*
Y00412750D01*
X02033000Y00411250D02*
X02036000D01*
Y00350250D02*
X02033000D01*
X02034500Y00348750D02*
Y00351750D01*
X02127000Y00359750D02*
X02130000D01*
X02128500Y00358250D02*
Y00361250D01*
X02117750Y00322250D02*
X02114750D01*
X02116250Y00320750D02*
Y00323750D01*
X02136500Y00360000D02*
X02139500D01*
X02138000Y00358500D02*
Y00361500D01*
X02147500Y00357500D02*
X02150500D01*
X02149000Y00356000D02*
Y00359000D01*
X02157500Y00357500D02*
X02160500D01*
X02159000Y00356000D02*
Y00359000D01*
X02123000Y00366250D02*
Y00369250D01*
X02121500Y00367750D02*
X02124500D01*
X02122500Y00421750D02*
Y00424750D01*
X02121000Y00423250D02*
X02124000D01*
X02110000Y00426250D02*
Y00429250D01*
X02108500Y00427750D02*
X02111500D01*
X02092500Y00467000D02*
Y00470000D01*
X02091000Y00468500D02*
X02094000D01*
X02136250Y00547420D02*
Y00557580D01*
X02141330Y00552500D02*
X02131170D01*
X02115930D02*
X02105770D01*
X02110850Y00547420D02*
Y00557580D01*
X02156570Y00552500D02*
X02166730D01*
X02161650Y00547420D02*
Y00557580D01*
X02167750Y00574750D02*
X02170750D01*
X02169250Y00573250D02*
Y00576250D01*
X02151750Y00574750D02*
X02148750D01*
X02150250Y00573250D02*
Y00576250D01*
X02042500Y00564750D02*
X02039500D01*
X02041000Y00563250D02*
Y00566250D01*
X02076250Y00524500D02*
X02079250D01*
X02077750Y00523000D02*
Y00526000D01*
X02005250Y00524500D02*
X02002250D01*
X02003750Y00523000D02*
Y00526000D01*
X01960000Y00581120D02*
Y00591280D01*
X01954920Y00586200D02*
X01965080D01*
X01960000Y00606520D02*
Y00616680D01*
X01954920Y00611600D02*
X01965080D01*
X01873000Y00675300D02*
Y00666300D01*
X01868500Y00670800D02*
X01877500D01*
X01874750Y00622750D02*
X01871750D01*
X01873250Y00621250D02*
Y00624250D01*
X01862750Y00591250D02*
X01859750D01*
X01861250Y00589750D02*
Y00592750D01*
X01871750Y00569500D02*
Y00566500D01*
X01870250Y00568000D02*
X01873250D01*
X01853500Y00559750D02*
X01850500D01*
X01852000Y00558250D02*
Y00561250D01*
X01813750Y00560000D02*
X01800750D01*
X01807250Y00553500D02*
Y00566500D01*
X01810000Y00655000D02*
X01813000D01*
X01811500Y00653500D02*
Y00656500D01*
X01799500Y00671500D02*
Y00674500D01*
X01798000Y00673000D02*
X01801000D01*
X01810000Y00693250D02*
X01813000D01*
X01811500Y00691750D02*
Y00694750D01*
X01826500Y00719200D02*
X01850500D01*
X01838500Y00707200D02*
Y00731200D01*
X01737000Y00728000D02*
Y00712000D01*
X01729000Y00720000D02*
X01745000D01*
X01686200Y00728000D02*
Y00712000D01*
X01678200Y00720000D02*
X01694200D01*
X01635400Y00728000D02*
Y00712000D01*
X01627400Y00720000D02*
X01643400D01*
X01584600Y00728000D02*
Y00712000D01*
X01576600Y00720000D02*
X01592600D01*
X01600500Y00633000D02*
X01603500D01*
X01602000Y00631500D02*
Y00634500D01*
X01573500Y00576500D02*
X01570500D01*
X01572000Y00575000D02*
Y00578000D01*
X01644500Y00576500D02*
X01647500D01*
X01646000Y00575000D02*
Y00578000D01*
X01680750Y00560000D02*
X01693750D01*
X01687250Y00553500D02*
Y00566500D01*
X01631500Y00420250D02*
X01628500D01*
X01630000Y00418750D02*
Y00421750D01*
X01655750Y00396000D02*
X01658750D01*
X01657250Y00394500D02*
Y00397500D01*
X01666750Y00396000D02*
X01669750D01*
X01668250Y00394500D02*
Y00397500D01*
Y00386000D02*
Y00383000D01*
X01666750Y00384500D02*
X01669750D01*
X01658750Y00384250D02*
X01655750D01*
X01657250Y00382750D02*
Y00385750D01*
X01658500Y00343250D02*
X01661500D01*
X01660000Y00341750D02*
Y00344750D01*
X01671500Y00314750D02*
Y00311750D01*
X01670000Y00313250D02*
X01673000D01*
X01685500Y00215750D02*
X01688500D01*
X01687000Y00214250D02*
Y00217250D01*
X01718500Y00220000D02*
X01721500D01*
X01720000Y00218500D02*
Y00221500D01*
Y00201500D02*
Y00198500D01*
X01718500Y00200000D02*
X01721500D01*
Y00180000D02*
X01718500D01*
X01720000Y00178500D02*
Y00181500D01*
Y00161500D02*
Y00158500D01*
X01681500Y00153250D02*
X01678500D01*
X01680000Y00151750D02*
Y00154750D01*
X01740000Y00158500D02*
Y00161500D01*
X01738500Y00160000D02*
X01741500D01*
X01748500Y00170000D02*
X01751500D01*
X01750000Y00168500D02*
Y00171500D01*
X01740000Y00178500D02*
Y00181500D01*
X01738500Y00180000D02*
X01741500D01*
X01758500D02*
X01761500D01*
X01760000Y00178500D02*
Y00181500D01*
X01768500Y00190000D02*
X01771500D01*
X01770000Y00188500D02*
Y00191500D01*
X01760000Y00198500D02*
Y00201500D01*
X01758500Y00200000D02*
X01761500D01*
X01750000Y00208500D02*
Y00211500D01*
X01740000Y00218500D02*
Y00221500D01*
X01738500Y00220000D02*
X01741500D01*
X01758500D02*
X01761500D01*
X01760000Y00218500D02*
Y00221500D01*
X01757000Y00254250D02*
Y00257250D01*
X01755500Y00255750D02*
X01758500D01*
X01730000Y00211500D02*
Y00208500D01*
X01728500Y00210000D02*
X01731500D01*
X01738500Y00200000D02*
X01741500D01*
X01740000Y00198500D02*
Y00201500D01*
X01748500Y00210000D02*
X01751500D01*
Y00190000D02*
X01748500D01*
X01750000Y00188500D02*
Y00191500D01*
X01731500Y00190000D02*
X01728500D01*
X01730000Y00188500D02*
Y00191500D01*
Y00171500D02*
Y00168500D01*
X01728500Y00170000D02*
X01731500D01*
X01758500Y00160000D02*
X01761500D01*
X01760000Y00161500D02*
Y00158500D01*
X01768500Y00170000D02*
X01771500D01*
X01770000Y00168500D02*
Y00171500D01*
X01721500Y00160000D02*
X01718500D01*
X01680000Y00161750D02*
Y00164750D01*
X01678500Y00163250D02*
X01681500D01*
X01566000Y00398500D02*
Y00401500D01*
X01564500Y00400000D02*
X01567500D01*
X01611250Y00435000D02*
X01614250D01*
X01612750Y00433500D02*
Y00436500D01*
X01585750Y00473500D02*
Y00476500D01*
X01584250Y00475000D02*
X01587250D01*
X01536750Y00435000D02*
X01533750D01*
X01535250Y00433500D02*
Y00436500D01*
X01511850Y00473500D02*
Y00476500D01*
X01510350Y00475000D02*
X01513350D01*
X01434850Y00475000D02*
X01431850D01*
X01433350Y00473500D02*
Y00476500D01*
X01420000Y00488500D02*
Y00491500D01*
X01418500Y00490000D02*
X01421500D01*
X01458750Y00430000D02*
X01461750D01*
X01460250Y00428500D02*
Y00431500D01*
X01405250Y00378250D02*
X01402250D01*
X01403750Y00376750D02*
Y00379750D01*
X01347500Y00416750D02*
Y00419750D01*
X01346000Y00418250D02*
X01349000D01*
X01338000Y00420000D02*
Y00423000D01*
X01336500Y00421500D02*
X01339500D01*
X01329000Y00436250D02*
Y00439250D01*
X01327500Y00437750D02*
X01330500D01*
X01320250Y00428250D02*
X01317250D01*
X01318750Y00426750D02*
Y00429750D01*
X01319143Y00366142D02*
X01322143D01*
X01320643Y00364642D02*
Y00367642D01*
X01350486Y00390414D02*
X01353486D01*
X01351986Y00388913D02*
Y00391913D01*
X01357557Y00383342D02*
X01360557D01*
X01359057Y00381842D02*
Y00384842D01*
X01296500Y00415750D02*
X01293500D01*
X01295000Y00417250D02*
Y00414250D01*
X01282750D02*
Y00417250D01*
X01281250Y00415750D02*
X01284250D01*
X01271750Y00425000D02*
Y00428000D01*
X01270250Y00426500D02*
X01273250D01*
X01293750Y00435250D02*
X01296750D01*
X01295250Y00433750D02*
Y00436750D01*
X01297500Y00456250D02*
X01300500D01*
X01299000Y00454750D02*
Y00457750D01*
X01307250Y00465000D02*
X01310250D01*
X01308750Y00463500D02*
Y00466500D01*
Y00448500D02*
Y00445500D01*
X01307250Y00447000D02*
X01310250D01*
X01330350Y00475500D02*
X01333350D01*
X01331850Y00474000D02*
Y00477000D01*
X01288750Y00475000D02*
X01285750D01*
X01287250Y00473500D02*
Y00476500D01*
X01263500Y00426500D02*
X01260500D01*
X01262000Y00425000D02*
Y00428000D01*
X01229000Y00413000D02*
X01226000D01*
X01227500Y00411500D02*
Y00414500D01*
X01230750Y00402750D02*
X01233750D01*
X01232250Y00401250D02*
Y00404250D01*
X01232500Y00380250D02*
X01235500D01*
X01234000Y00378750D02*
Y00381750D01*
X01242909Y00373663D02*
X01245909D01*
X01244409Y00372164D02*
Y00375163D01*
X01249561Y00380269D02*
X01252561D01*
X01251061Y00378769D02*
Y00381769D01*
X01261964Y00323105D02*
X01264965D01*
X01269035Y00316034D02*
X01272036D01*
X01270536Y00314534D02*
Y00317534D01*
X01309750Y00316500D02*
X01312750D01*
X01311250Y00315000D02*
Y00318000D01*
X01316180Y00289250D02*
Y00286250D01*
X01263465Y00321605D02*
Y00324605D01*
X01218250Y00333750D02*
Y00336750D01*
X01216750Y00335250D02*
X01219750D01*
X01230822Y00299034D02*
X01233822D01*
X01232322Y00297534D02*
Y00300534D01*
X01237893Y00291963D02*
X01240893D01*
X01239393Y00290463D02*
Y00293463D01*
X01259000Y00270750D02*
X01262000D01*
X01260500Y00269250D02*
Y00272250D01*
X01252500Y00243750D02*
X01249500D01*
X01251000Y00242250D02*
Y00245250D01*
X01232750Y00250500D02*
Y00253500D01*
X01231250Y00252000D02*
X01234250D01*
X01224000Y00246250D02*
X01221000D01*
X01222500Y00244750D02*
Y00247750D01*
X01194500Y00265250D02*
Y00268250D01*
X01193000Y00266750D02*
X01196000D01*
X01194500Y00278750D02*
Y00281750D01*
X01193000Y00280250D02*
X01196000D01*
X01182000Y00294500D02*
Y00297500D01*
X01180500Y00296000D02*
X01183500D01*
X01190000Y00246250D02*
X01193000D01*
X01191500Y00244750D02*
Y00247750D01*
X01206000Y00260250D02*
X01209000D01*
X01207500Y00258750D02*
Y00261750D01*
X01211750Y00202750D02*
Y00199750D01*
X01176750Y00131500D02*
X01173750D01*
X01175250Y00130000D02*
Y00133000D01*
X01179750Y00060250D02*
Y00049250D01*
X01174250Y00054750D02*
X01185250D01*
X01080000Y00068500D02*
Y00071500D01*
X01078500Y00070000D02*
X01081500D01*
X01066500D02*
X01063500D01*
X01065000Y00068500D02*
Y00071500D01*
Y00056500D02*
Y00053500D01*
X01063500Y00055000D02*
X01066500D01*
X01078500D02*
X01081500D01*
X01080000Y00053500D02*
Y00056500D01*
Y00041500D02*
Y00038500D01*
X01078500Y00040000D02*
X01081500D01*
X01066500D02*
X01063500D01*
X01065000Y00038500D02*
Y00041500D01*
Y00026500D02*
Y00023500D01*
X01063500Y00025000D02*
X01066500D01*
X01078500D02*
X01081500D01*
X01080000Y00023500D02*
Y00026500D01*
X01050000Y00068500D02*
Y00071500D01*
X01048500Y00070000D02*
X01051500D01*
X01036500D02*
X01033500D01*
X01035000Y00068500D02*
Y00071500D01*
X01016500Y00070000D02*
X01013500D01*
X01015000Y00068500D02*
Y00071500D01*
X01001500Y00070000D02*
X00998500D01*
X01000000Y00068500D02*
Y00071500D01*
X00986500Y00070000D02*
X00983500D01*
X00985000Y00068500D02*
Y00071500D01*
Y00056500D02*
Y00053500D01*
X00983500Y00055000D02*
X00986500D01*
Y00040000D02*
X00983500D01*
X00985000Y00038500D02*
Y00041500D01*
Y00026500D02*
Y00023500D01*
X00983500Y00025000D02*
X00986500D01*
X00971500D02*
X00968500D01*
X00970000Y00023500D02*
Y00026500D01*
Y00038500D02*
Y00041500D01*
X00968500Y00040000D02*
X00971500D01*
X00970000Y00053500D02*
Y00056500D01*
X00968500Y00055000D02*
X00971500D01*
X00956500D02*
X00953500D01*
X00955000Y00053500D02*
Y00056500D01*
Y00041500D02*
Y00038500D01*
X00953500Y00040000D02*
X00956500D01*
Y00025000D02*
X00953500D01*
X00955000Y00023500D02*
Y00026500D01*
X00886500Y00025000D02*
X00883500D01*
X00885000Y00023500D02*
Y00026500D01*
Y00038500D02*
Y00041500D01*
X00883500Y00040000D02*
X00886500D01*
X00885000Y00053500D02*
Y00056500D01*
X00883500Y00055000D02*
X00886500D01*
X00871500D02*
X00868500D01*
X00870000Y00053500D02*
Y00056500D01*
Y00041500D02*
Y00038500D01*
X00868500Y00040000D02*
X00871500D01*
Y00025000D02*
X00868500D01*
X00870000Y00023500D02*
Y00026500D01*
X00856500Y00025000D02*
X00853500D01*
X00841500D02*
X00838500D01*
X00840000Y00023500D02*
Y00026500D01*
Y00038500D02*
Y00041500D01*
X00838500Y00040000D02*
X00841500D01*
X00853500D02*
X00856500D01*
X00855000Y00038500D02*
Y00041500D01*
Y00053500D02*
Y00056500D01*
X00856500Y00055000D02*
X00853500D01*
X00841500D02*
X00838500D01*
X00840000Y00053500D02*
Y00056500D01*
X00826500Y00055000D02*
X00823500D01*
X00825000Y00053500D02*
Y00056500D01*
X00811500Y00055000D02*
X00808500D01*
X00810000Y00053500D02*
Y00056500D01*
Y00041500D02*
Y00038500D01*
X00808500Y00040000D02*
X00811500D01*
X00823500D02*
X00826500D01*
X00825000Y00038500D02*
Y00041500D01*
Y00026500D02*
Y00023500D01*
X00823500Y00025000D02*
X00826500D01*
X00811500D02*
X00808500D01*
X00810000Y00023500D02*
Y00026500D01*
X00855000D02*
Y00023500D01*
X00795000D02*
Y00026500D01*
X00793500Y00025000D02*
X00796500D01*
X00795000Y00038500D02*
Y00041500D01*
X00793500Y00040000D02*
X00796500D01*
X00795000Y00053500D02*
Y00056500D01*
X00793500Y00055000D02*
X00796500D01*
X00781500D02*
X00778500D01*
X00780000Y00053500D02*
Y00056500D01*
Y00041500D02*
Y00038500D01*
X00778500Y00040000D02*
X00781500D01*
Y00025000D02*
X00778500D01*
X00780000Y00023500D02*
Y00026500D01*
X00779000Y00172500D02*
Y00175500D01*
X00777500Y00174000D02*
X00780500D01*
X00790500D02*
X00793500D01*
X00792000Y00172500D02*
Y00175500D01*
Y00185500D02*
Y00188500D01*
X00790500Y00187000D02*
X00793500D01*
X00792000Y00198500D02*
Y00201500D01*
X00790500Y00200000D02*
X00793500D01*
X00803500Y00214000D02*
X00806500D01*
X00805000Y00212500D02*
Y00215500D01*
Y00225500D02*
Y00228500D01*
X00803500Y00227000D02*
X00806500D01*
X00817500D02*
X00820500D01*
X00819000Y00225500D02*
Y00228500D01*
Y00215500D02*
Y00212500D01*
X00817500Y00214000D02*
X00820500D01*
X00841750Y00217750D02*
X00844750D01*
X00843250Y00216250D02*
Y00219250D01*
X00787500Y00281750D02*
Y00284750D01*
X00786000Y00283250D02*
X00789000D01*
X00790500Y00227000D02*
X00793500D01*
X00792000Y00225500D02*
Y00228500D01*
Y00215500D02*
Y00212500D01*
X00790500Y00214000D02*
X00793500D01*
X00780500D02*
X00777500D01*
X00779000Y00212500D02*
Y00215500D01*
Y00225500D02*
Y00228500D01*
X00777500Y00227000D02*
X00780500D01*
X00720000Y00278500D02*
Y00281500D01*
X00718500Y00280000D02*
X00721500D01*
X00720000Y00298500D02*
Y00301500D01*
X00718500Y00300000D02*
X00721500D01*
X00701500D02*
X00698500D01*
X00700000Y00298500D02*
Y00301500D01*
X00681500Y00300000D02*
X00678500D01*
X00680000Y00298500D02*
Y00301500D01*
X00661500Y00300000D02*
X00658500D01*
X00660000Y00298500D02*
Y00301500D01*
X00668500Y00240000D02*
X00671500D01*
X00670000Y00238500D02*
Y00241500D01*
X00688500Y00240000D02*
X00691500D01*
X00690000Y00238500D02*
Y00241500D01*
X00685250Y00211500D02*
X00682250D01*
X00683750Y00213000D02*
Y00210000D01*
Y00199250D02*
Y00196250D01*
X00682250Y00197750D02*
X00685250D01*
X00670500Y00197500D02*
X00667500D01*
X00669000Y00196000D02*
Y00199000D01*
X00668750Y00182000D02*
Y00179000D01*
X00667250Y00180500D02*
X00670250D01*
Y00167250D02*
X00667250D01*
X00668750Y00165750D02*
Y00168750D01*
X00656250Y00188000D02*
Y00191000D01*
X00654750Y00189500D02*
X00657750D01*
X00718500Y00260000D02*
X00721500D01*
X00720000Y00258500D02*
Y00261500D01*
X00651500Y00240000D02*
X00648500D01*
X00625000Y00243500D02*
Y00246500D01*
X00623500Y00245000D02*
X00626500D01*
X00606500D02*
X00603500D01*
X00605000Y00243500D02*
Y00246500D01*
X00604500Y00189500D02*
X00601500D01*
X00603000Y00188000D02*
Y00191000D01*
X00614500Y00189500D02*
X00617500D01*
X00616000Y00188000D02*
Y00191000D01*
X00628000Y00189500D02*
X00631000D01*
X00629500Y00188000D02*
Y00191000D01*
X00641500Y00189500D02*
X00644500D01*
X00643000Y00188000D02*
Y00191000D01*
X00650000Y00238500D02*
Y00241500D01*
X00625000Y00263500D02*
Y00266500D01*
X00623500Y00265000D02*
X00626500D01*
X00625000Y00283500D02*
Y00286500D01*
X00623500Y00285000D02*
X00626500D01*
X00606500D02*
X00603500D01*
X00605000Y00283500D02*
Y00286500D01*
Y00266500D02*
Y00263500D01*
X00603500Y00265000D02*
X00606500D01*
X00638500Y00300000D02*
X00641500D01*
X00640000Y00298500D02*
Y00301500D01*
X00553000Y00339500D02*
Y00348500D01*
X00548500Y00344000D02*
X00557500D01*
Y00294000D02*
X00548500D01*
X00553000Y00289500D02*
Y00298500D01*
X00583500Y00265000D02*
X00586500D01*
X00585000Y00263500D02*
Y00266500D01*
Y00246500D02*
Y00243500D01*
X00583500Y00245000D02*
X00586500D01*
X00570000Y00253500D02*
Y00256500D01*
X00568500Y00255000D02*
X00571500D01*
X00556500D02*
X00553500D01*
X00555000Y00253500D02*
Y00256500D01*
X00541500Y00255000D02*
X00538500D01*
X00540000Y00253500D02*
Y00256500D01*
X00540750Y00235000D02*
X00543750D01*
X00542250Y00233500D02*
Y00236500D01*
X00533750Y00228750D02*
X00530750D01*
X00532250Y00227250D02*
Y00230250D01*
X00543250Y00179250D02*
X00545250D01*
X00544250Y00178250D02*
Y00180250D01*
Y00170250D02*
Y00168250D01*
X00543250Y00169250D02*
X00545250D01*
X00478250Y00237750D02*
Y00245250D01*
X00474500Y00241500D02*
X00482000D01*
X00467000D02*
X00459500D01*
X00463250Y00237750D02*
Y00245250D01*
X00449000Y00293600D02*
X00440000D01*
X00444500Y00289100D02*
Y00298100D01*
X00449000Y00343600D02*
X00440000D01*
X00444500Y00339100D02*
Y00348100D01*
X00480500Y00406000D02*
X00488500D01*
X00484500Y00402000D02*
Y00410000D01*
X00505500Y00406000D02*
X00513500D01*
X00509500Y00402000D02*
Y00410000D01*
X00565500Y00438500D02*
X00568500D01*
X00567000Y00437000D02*
Y00440000D01*
Y00449000D02*
Y00452000D01*
X00565500Y00450500D02*
X00568500D01*
X00696000Y00527250D02*
X00699000D01*
X00697500Y00525750D02*
Y00528750D01*
X00623500Y00547250D02*
Y00550250D01*
X00622000Y00548750D02*
X00625000D01*
X00570500Y00598000D02*
Y00601000D01*
X00569000Y00599500D02*
X00572000D01*
X00581000Y00567250D02*
X00584000D01*
X00582500Y00565750D02*
Y00568750D01*
Y00556500D02*
Y00553500D01*
X00581000Y00555000D02*
X00584000D01*
X00517000Y00583750D02*
Y00586750D01*
X00515500Y00585250D02*
X00518500D01*
X00518500Y00557500D02*
X00521500D01*
X00520000Y00556000D02*
Y00559000D01*
Y00546500D02*
Y00543500D01*
X00518500Y00545000D02*
X00521500D01*
X00446000Y00589000D02*
Y00592000D01*
X00447500Y00590500D02*
X00444500D01*
X00456500Y00525500D02*
X00459500D01*
X00458000Y00524000D02*
Y00527000D01*
X00429500Y00478250D02*
X00426500D01*
X00428000Y00476750D02*
Y00479750D01*
X00421000Y00460500D02*
X00418000D01*
X00419500Y00459000D02*
Y00462000D01*
Y00453000D02*
Y00450000D01*
X00418000Y00451500D02*
X00421000D01*
X00367750Y00476750D02*
Y00479750D01*
X00366250Y00478250D02*
X00369250D01*
X00359000Y00528250D02*
Y00531250D01*
X00357500Y00529750D02*
X00360500D01*
X00361000Y00541250D02*
X00364000D01*
X00362500Y00539750D02*
Y00542750D01*
X00349000Y00564000D02*
Y00567000D01*
X00347500Y00565500D02*
X00350500D01*
X00308750Y00614750D02*
Y00617750D01*
X00307250Y00616250D02*
X00310250D01*
X00297750D02*
X00294750D01*
X00296250Y00614750D02*
Y00617750D01*
X00295500Y00552750D02*
Y00549750D01*
X00294000Y00551250D02*
X00297000D01*
X00297500Y00526250D02*
X00300500D01*
X00299000Y00524750D02*
Y00527750D01*
Y00515500D02*
Y00512500D01*
X00297500Y00514000D02*
X00300500D01*
X00320250Y00478250D02*
X00323250D01*
X00321750Y00476750D02*
Y00479750D01*
X00293250Y00465000D02*
X00290250D01*
X00291750Y00463500D02*
Y00466500D01*
X00217250Y00519000D02*
Y00516000D01*
X00215750Y00517500D02*
X00218750D01*
X00216250Y00478250D02*
X00213250D01*
X00214750Y00476750D02*
Y00479750D01*
X00216000Y00532500D02*
X00219000D01*
X00217500Y00531000D02*
Y00534000D01*
X00205500Y00566250D02*
Y00569250D01*
X00204000Y00567750D02*
X00207000D01*
X00276500Y00577250D02*
X00279500D01*
X00278000Y00575750D02*
Y00578750D01*
X00197500Y00631500D02*
Y00634500D01*
X00196000Y00633000D02*
X00199000D01*
X00273900Y00720000D02*
X00289900D01*
X00281900Y00712000D02*
Y00728000D01*
X00324700Y00720000D02*
X00340700D01*
X00332700Y00712000D02*
Y00728000D01*
X00375500Y00720000D02*
X00391500D01*
X00383500Y00712000D02*
Y00728000D01*
X00426300Y00720000D02*
X00442300D01*
X00434300Y00712000D02*
Y00728000D01*
X00477100Y00720000D02*
X00493100D01*
X00485100Y00712000D02*
Y00728000D01*
X00527900Y00720000D02*
X00543900D01*
X00535900Y00712000D02*
Y00728000D01*
X00469500Y00633250D02*
X00466500D01*
X00468000Y00631750D02*
Y00634750D01*
X00511000Y00640000D02*
X00514000D01*
X00512500Y00638500D02*
Y00641500D01*
Y00629000D02*
Y00626000D01*
X00511000Y00627500D02*
X00514000D01*
X00633800Y00720000D02*
X00649800D01*
X00684600D02*
X00700600D01*
X00735400D02*
X00751400D01*
X00743400Y00712000D02*
Y00728000D01*
X00786200Y00720000D02*
X00802200D01*
X00794200Y00712000D02*
Y00728000D01*
X00837000Y00720000D02*
X00853000D01*
X00845000Y00712000D02*
Y00728000D01*
X00887800Y00720000D02*
X00903800D01*
X00895800Y00712000D02*
Y00728000D01*
X00938600Y00720000D02*
X00954600D01*
X00946600Y00712000D02*
Y00728000D01*
X00989400Y00720000D02*
X01005400D01*
X00997400Y00712000D02*
Y00728000D01*
X01040200Y00720000D02*
X01056200D01*
X01048200Y00712000D02*
Y00728000D01*
X01091000Y00720000D02*
X01107000D01*
X01099000Y00712000D02*
Y00728000D01*
X00957750Y00574000D02*
X00954750D01*
X00956250Y00572500D02*
Y00575500D01*
X00913250Y00631500D02*
Y00634500D01*
X00911750Y00633000D02*
X00914750D01*
X00886000Y00592500D02*
X00883000D01*
X00884500Y00591000D02*
Y00594000D01*
X00805750Y00574000D02*
X00802750D01*
X00804250Y00572500D02*
Y00575500D01*
X00802750Y00452500D02*
X00799750D01*
X00801250Y00451000D02*
Y00454000D01*
X00759750Y00457750D02*
Y00460750D01*
X00758250Y00459250D02*
X00761250D01*
X00766250Y00433500D02*
X00769250D01*
X00767750Y00432000D02*
Y00435000D01*
X00835500Y00392000D02*
X00838500D01*
X00837000Y00390500D02*
Y00393500D01*
X00816000Y00340000D02*
X00784000D01*
X00800000Y00324000D02*
Y00356000D01*
X00868750Y00464750D02*
X00871750D01*
X00870250Y00463250D02*
Y00466250D01*
X00889850Y00458650D02*
X00892850D01*
X00891350Y00457150D02*
Y00460150D01*
X00904000Y00453250D02*
X00907000D01*
X00905500Y00451750D02*
Y00454750D01*
X00912000Y00419500D02*
X00915000D01*
X00913500Y00418000D02*
Y00421000D01*
X00955000Y00427250D02*
X00958000D01*
X00976750Y00453000D02*
X00979750D01*
X00978250Y00451500D02*
Y00454500D01*
X00958250Y00370000D02*
X00955250D01*
X00913750Y00382500D02*
Y00385500D01*
X00912250Y00384000D02*
X00915250D01*
X00950500Y00337000D02*
X00953500D01*
X00952000Y00335500D02*
Y00338500D01*
X00951000Y00315500D02*
Y00312500D01*
X00912625Y00272125D02*
X00909625D01*
X00911125Y00270625D02*
Y00273625D01*
X00976750Y00348500D02*
X00979750D01*
X00978250Y00347000D02*
Y00350000D01*
X01004500Y00352000D02*
X01007500D01*
X01006000Y00350500D02*
Y00353500D01*
X01031250Y00305000D02*
X01034250D01*
X01032750Y00303500D02*
Y00306500D01*
X01044500Y00311000D02*
X01047500D01*
X01046000Y00309500D02*
Y00312500D01*
Y00301500D02*
Y00298500D01*
X01044500Y00300000D02*
X01047500D01*
Y00289000D02*
X01044500D01*
X01046000Y00287500D02*
Y00290500D01*
X01051500Y00280000D02*
X01054500D01*
X01053000Y00278500D02*
Y00281500D01*
X01032750Y00283500D02*
Y00286500D01*
X01031250Y00285000D02*
X01034250D01*
Y00267000D02*
X01031250D01*
X01032750Y00265500D02*
Y00268500D01*
X01088500Y00260000D02*
X01091500D01*
X01090000Y00258500D02*
Y00261500D01*
X01121500Y00270000D02*
X01124500D01*
X01123000Y00268500D02*
Y00271500D01*
X01125500Y00292000D02*
X01128500D01*
X01127000Y00290500D02*
Y00293500D01*
Y00300500D02*
Y00303500D01*
X01125500Y00302000D02*
X01128500D01*
X01139500D02*
X01142500D01*
X01141000Y00300500D02*
Y00303500D01*
Y00312500D02*
Y00315500D01*
X01139500Y00314000D02*
X01142500D01*
X01141000Y00323500D02*
Y00326500D01*
X01139500Y00325000D02*
X01142500D01*
X01140500Y00363000D02*
Y00366000D01*
X01139000Y00364500D02*
X01142000D01*
X01159250Y00351750D02*
X01162250D01*
X01171250Y00351750D02*
X01174250D01*
X01172750Y00350250D02*
Y00353250D01*
X01202000Y00380250D02*
X01205000D01*
X01203500Y00378750D02*
Y00381750D01*
X01198500Y00461500D02*
Y00474500D01*
X01192000Y00468000D02*
X01205000D01*
X01145000Y00442500D02*
X01132000D01*
X01138500Y00436000D02*
Y00449000D01*
X01085000Y00468000D02*
X01072000D01*
X01078500Y00474500D02*
Y00461500D01*
X01037750Y00486000D02*
Y00489000D01*
X01036250Y00487500D02*
X01039250D01*
X01017000Y00427250D02*
X01014000D01*
X01015500Y00425750D02*
Y00428750D01*
X01023250Y00380500D02*
X01026250D01*
X01024750Y00379000D02*
Y00382000D01*
X01035000Y00382250D02*
X01038000D01*
X01036500Y00380750D02*
Y00383750D01*
X01049250Y00371750D02*
X01052250D01*
X01050750Y00370250D02*
Y00373250D01*
X01051500Y00319000D02*
X01054500D01*
X01053000Y00317500D02*
Y00320500D01*
X01061500Y00280000D02*
X01064500D01*
X01063000Y00278500D02*
Y00281500D01*
X01079500Y00286000D02*
X01082500D01*
X01081000Y00284500D02*
Y00287500D01*
X01090500Y00286000D02*
X01093500D01*
X01092000Y00284500D02*
Y00287500D01*
X01094500Y00301000D02*
X01097500D01*
X01096000Y00299500D02*
Y00302500D01*
X01107500Y00301000D02*
X01110500D01*
X01139500Y00292000D02*
X01142500D01*
X01141000Y00290500D02*
Y00293500D01*
X01153500Y00292000D02*
X01156500D01*
X01155000Y00290500D02*
Y00293500D01*
Y00300500D02*
Y00303500D01*
X01153500Y00302000D02*
X01156500D01*
X01160750Y00350250D02*
Y00353250D01*
X01088500Y00325000D02*
X01085500D01*
X01087000Y00323500D02*
Y00326500D01*
X01091500Y00317000D02*
X01094500D01*
X01093000Y00315500D02*
Y00318500D01*
X01082500Y00317000D02*
X01079500D01*
X01081000Y00315500D02*
Y00318500D01*
X01064500Y00319000D02*
X01061500D01*
X01063000Y00317500D02*
Y00320500D01*
X01063750Y00342250D02*
Y00345250D01*
X01062250Y00343750D02*
X01065250D01*
X01109000Y00302500D02*
Y00299500D01*
X01091500Y00270000D02*
X01088500D01*
X01090000Y00268500D02*
Y00271500D01*
X00956750Y00368500D02*
Y00371500D01*
X00956500Y00425750D02*
Y00428750D01*
X00958250Y00477000D02*
X00961250D01*
X00959750Y00475500D02*
Y00478500D01*
X01035750Y00564750D02*
X01038750D01*
X01037250Y00563250D02*
Y00566250D01*
X01072000Y00590000D02*
X01085000D01*
X01078500Y00583500D02*
Y00596500D01*
X01038250Y00592500D02*
X01035250D01*
X01036750Y00591000D02*
Y00594000D01*
X01192000Y00590000D02*
X01205000D01*
X01198500Y00583500D02*
Y00596500D01*
X01312250Y00633250D02*
X01315250D01*
X01406500Y00612750D02*
X01409500D01*
X01408000Y00611250D02*
Y00614250D01*
X01412500Y00633000D02*
X01415500D01*
X01414000Y00631500D02*
Y00634500D01*
X01424200Y00720000D02*
X01440200D01*
X01432200Y00712000D02*
Y00728000D01*
X01475000Y00720000D02*
X01491000D01*
X01483000Y00712000D02*
Y00728000D01*
X01525800Y00720000D02*
X01541800D01*
X01533800Y00712000D02*
Y00728000D01*
X01510500Y00592500D02*
X01507500D01*
X01509000Y00591000D02*
Y00594000D01*
X01381400Y00712000D02*
Y00728000D01*
X01373400Y00720000D02*
X01389400D01*
X01330600Y00728000D02*
Y00712000D01*
X01322600Y00720000D02*
X01338600D01*
X01279800Y00728000D02*
Y00712000D01*
X01271800Y00720000D02*
X01287800D01*
X01313750Y00634750D02*
Y00631750D01*
X01229000Y00712000D02*
Y00728000D01*
X01221000Y00720000D02*
X01237000D01*
X00952500Y00314000D02*
X00949500D01*
X00836750Y00448250D02*
Y00451250D01*
X00835250Y00449750D02*
X00838250D01*
X00825500Y00457000D02*
Y00460000D01*
X00824000Y00458500D02*
X00827000D01*
X00692600Y00712000D02*
Y00728000D01*
X00641800D02*
Y00712000D01*
X00352000Y00633000D02*
X00349000D01*
X00350500Y00631500D02*
Y00634500D01*
X00231100Y00728000D02*
Y00712000D01*
X00223100Y00720000D02*
X00239100D01*
X00180300Y00728000D02*
Y00712000D01*
X00172300Y00720000D02*
X00188300D01*
X00137500D02*
X00121500D01*
X00129500Y00712000D02*
Y00728000D01*
X00066000Y00730000D02*
X00034000D01*
X00050000Y00714000D02*
Y00746000D01*
X00164250Y00614000D02*
X00167250D01*
X00165750Y00612500D02*
Y00615500D01*
X00154750Y00596750D02*
X00151750D01*
X00153250Y00595250D02*
Y00598250D01*
X00152000Y00573000D02*
Y00570000D01*
X00150500Y00571500D02*
X00153500D01*
X00140250Y00574000D02*
Y00577000D01*
X00138750Y00575500D02*
X00141750D01*
X00150500Y00553500D02*
X00153500D01*
X00152000Y00552000D02*
Y00555000D01*
X00154750Y00525250D02*
X00157750D01*
X00156250Y00523750D02*
Y00526750D01*
Y00515250D02*
Y00512250D01*
X00154750Y00513750D02*
X00157750D01*
X00170000Y00497250D02*
X00173000D01*
X00171500Y00495750D02*
Y00498750D01*
X00172500Y00478250D02*
X00175500D01*
X00174000Y00476750D02*
Y00479750D01*
X00079250Y00478250D02*
X00076250D01*
X00077750Y00476750D02*
Y00479750D01*
X00060000Y00485750D02*
Y00488750D01*
X00058500Y00487250D02*
X00061500D01*
X00052000Y00434500D02*
X00049000D01*
X00050500Y00433000D02*
Y00436000D01*
X00053250Y00384750D02*
Y00376750D01*
X00049250Y00380750D02*
X00057250D01*
X00074250D02*
X00082250D01*
X00078250Y00376750D02*
Y00384750D01*
X00025250Y00451000D02*
Y00454000D01*
X00023750Y00452500D02*
X00026750D01*
X00025250Y00483000D02*
Y00486000D01*
X00023750Y00484500D02*
X00026750D01*
X00298500Y00130000D02*
X00301500D01*
X00300000Y00128500D02*
Y00131500D01*
X00313500Y00130000D02*
X00316500D01*
X00315000Y00128500D02*
Y00131500D01*
X00328500Y00130000D02*
X00331500D01*
X00330000Y00128500D02*
Y00131500D01*
Y00116500D02*
Y00113500D01*
X00328500Y00115000D02*
X00331500D01*
X00316500D02*
X00313500D01*
X00315000Y00113500D02*
Y00116500D01*
X00301500Y00115000D02*
X00298500D01*
X00300000Y00113500D02*
Y00116500D01*
Y00096500D02*
Y00093500D01*
X00298500Y00095000D02*
X00301500D01*
X00313500D02*
X00316500D01*
X00315000Y00093500D02*
Y00096500D01*
X00328500Y00095000D02*
X00331500D01*
X00330000Y00093500D02*
Y00096500D01*
X00393500Y00090000D02*
X00396500D01*
X00395000Y00088500D02*
Y00091500D01*
Y00113500D02*
Y00116500D01*
X00393500Y00115000D02*
X00396500D01*
X00229699Y00067700D02*
Y00040700D01*
X01439500Y00070250D02*
X01442500D01*
X01441000Y00068750D02*
Y00071750D01*
X01485250Y00097750D02*
X01488250D01*
X01486750Y00096250D02*
Y00099250D01*
X01493500Y00104250D02*
X01496500D01*
X01495000Y00102750D02*
Y00105750D01*
X01680750Y00438000D02*
X01693750D01*
X01687250Y00431500D02*
Y00444500D01*
X02001250Y00392000D02*
X02004250D01*
X02002750Y00390500D02*
Y00393500D01*
X02300000Y00714000D02*
Y00746000D01*
X02316000Y00730000D02*
X02284000D01*
M02*
